<svg width="1326" height="562" viewBox="0 0 1326 562" fill="none" xmlns="http://www.w3.org/2000/svg">
                    <g filter="url(#filter0_d_38_500)">
                        <path
                            d="M696.486 406.846H739.642C740.227 406.846 740.767 407.161 741.059 407.673L762.164 444.593H804.356C804.94 444.593 805.481 444.908 805.773 445.42L827.35 483.168C827.642 483.679 827.642 484.309 827.35 484.821L805.773 522.568C805.481 523.08 804.94 523.395 804.356 523.395H762.164L741.059 560.316C740.767 560.827 740.226 561.142 739.642 561.142H696.486C695.901 561.142 695.36 560.827 695.068 560.316L673.491 522.568C673.2 522.057 673.2 521.427 673.491 520.915L694.596 483.994L673.491 447.073C673.2 446.562 673.2 445.932 673.491 445.42L695.068 407.673C695.36 407.162 695.901 406.846 696.486 406.846ZM738.697 410.153H697.431L676.799 446.247L697.431 482.341H738.678L759.319 446.23L738.697 410.153ZM803.41 447.9H762.164L741.532 483.994L762.164 520.088H803.41L824.042 483.994L803.41 447.9ZM738.678 485.648H697.431L676.799 521.742L697.431 557.836H738.697L759.319 521.758L738.678 485.648ZM734.368 416.393C734.934 416.393 735.484 416.69 735.787 417.22L752.094 445.746C752.386 446.258 752.386 446.887 752.094 447.399L735.787 475.926C735.335 476.716 734.337 476.989 733.551 476.531C732.768 476.075 732.5 475.064 732.952 474.273L748.787 446.573L732.952 418.873C732.5 418.082 732.768 417.071 733.551 416.615C733.809 416.464 734.092 416.393 734.368 416.393ZM799.339 453.365C799.905 453.365 800.455 453.662 800.758 454.192L817.322 483.168C817.615 483.679 817.615 484.309 817.322 484.821L800.758 513.797C800.466 514.308 799.925 514.623 799.341 514.623H766.214C765.31 514.623 764.577 513.883 764.577 512.97C764.577 512.057 765.31 511.317 766.214 511.317H798.396L814.014 483.994L797.923 455.845C797.471 455.054 797.739 454.043 798.522 453.587C798.78 453.436 799.062 453.365 799.339 453.365ZM750.678 520.087C750.956 520.087 751.237 520.159 751.495 520.31C752.279 520.766 752.546 521.777 752.094 522.568L735.788 551.095C735.496 551.607 734.955 551.922 734.371 551.922H701.757C700.854 551.922 700.121 551.181 700.121 550.269C700.121 549.356 700.854 548.615 701.757 548.615H733.425L749.259 520.915C749.562 520.384 750.113 520.087 750.678 520.087Z"
                            fill="#FFBE98" />
                    </g>
                    <g filter="url(#filter1_d_38_500)">
                        <path
                            d="M1155.51 21.3769L1195.83 20.9704C1196.38 20.9649 1196.88 21.2509 1197.16 21.721L1217.22 55.6412L1256.64 55.2438C1257.19 55.2383 1257.69 55.5242 1257.97 55.9944L1278.48 90.674C1278.76 91.1441 1278.77 91.7262 1278.5 92.2018L1258.69 127.288C1258.42 127.764 1257.92 128.06 1257.37 128.065L1217.96 128.463L1198.58 162.78C1198.31 163.256 1197.81 163.552 1197.27 163.558L1156.95 163.964C1156.4 163.969 1155.89 163.684 1155.61 163.213L1135.1 128.534C1134.83 128.064 1134.82 127.482 1135.09 127.006L1154.46 92.6882L1134.4 58.7681C1134.12 58.298 1134.12 57.7159 1134.39 57.2403L1154.19 22.1542C1154.46 21.6793 1154.96 21.3824 1155.51 21.3769ZM1194.98 24.035L1156.42 24.4237L1137.48 57.973L1157.1 91.1337L1195.63 90.7452L1214.58 57.1805L1194.98 24.035ZM1255.79 58.3084L1217.25 58.6968L1198.31 92.2462L1217.93 125.407L1256.46 125.018L1275.4 91.469L1255.79 58.3084ZM1195.66 93.8009L1157.13 94.1894L1138.19 127.739L1157.8 160.899L1196.35 160.511L1215.28 126.977L1195.66 93.8009ZM1190.99 29.8426C1191.52 29.8373 1192.04 30.1064 1192.32 30.5932L1207.82 56.8009C1208.1 57.271 1208.11 57.8531 1207.84 58.3287L1192.87 84.8444C1192.46 85.579 1191.53 85.8405 1190.79 85.4247C1190.05 85.0104 1189.79 84.0786 1190.21 83.3433L1204.74 57.596L1189.69 32.1477C1189.26 31.4209 1189.5 30.4841 1190.23 30.055C1190.47 29.9136 1190.73 29.8452 1190.99 29.8426ZM1252.04 63.397C1252.56 63.3916 1253.08 63.6607 1253.37 64.1475L1269.11 90.7684C1269.39 91.2385 1269.4 91.8206 1269.13 92.2963L1253.92 119.229C1253.66 119.705 1253.15 120.001 1252.61 120.006L1221.66 120.318C1220.81 120.327 1220.12 119.649 1220.11 118.806C1220.1 117.963 1220.78 117.271 1221.63 117.263L1251.69 116.96L1266.03 91.5635L1250.74 65.7021C1250.31 64.9752 1250.55 64.0385 1251.27 63.6094C1251.51 63.4679 1251.78 63.3996 1252.04 63.397ZM1207.19 125.514C1207.45 125.512 1207.72 125.575 1207.96 125.712C1208.7 126.126 1208.96 127.058 1208.54 127.793L1193.57 154.309C1193.3 154.785 1192.8 155.081 1192.26 155.086L1161.79 155.394C1160.94 155.402 1160.25 154.725 1160.24 153.881C1160.23 153.038 1160.91 152.346 1161.76 152.338L1191.34 152.04L1205.88 126.292C1206.15 125.799 1206.67 125.52 1207.19 125.514Z"
                            fill="#FFBE98" />
                    </g>
                    <g filter="url(#filter2_d_38_500)">
                        <path
                            d="M71.1618 348.874L111.481 348.468C112.028 348.462 112.535 348.748 112.813 349.218L132.874 383.138L172.293 382.741C172.839 382.735 173.347 383.021 173.625 383.492L194.135 418.171C194.413 418.641 194.419 419.223 194.151 419.699L174.344 454.785C174.075 455.261 173.573 455.557 173.027 455.562L133.609 455.96L114.235 490.277C113.967 490.753 113.464 491.049 112.918 491.055L72.5993 491.461C72.0525 491.467 71.5449 491.181 71.2672 490.711L50.7568 456.031C50.4798 455.561 50.4739 454.979 50.7414 454.503L70.1149 420.185L50.0534 386.265C49.7764 385.795 49.7706 385.213 50.038 384.737L69.8451 349.651C70.1133 349.177 70.6151 348.88 71.1618 348.874ZM110.629 351.532L72.0758 351.921L53.1365 385.47L72.7483 418.631L111.284 418.242L130.232 384.678L110.629 351.532ZM171.44 385.806L132.905 386.194L113.966 419.743L133.578 452.904L172.113 452.516L191.052 418.966L171.44 385.806ZM111.315 421.298L72.7791 421.687L53.8398 455.236L73.4516 488.397L112.005 488.008L130.935 454.474L111.315 421.298ZM106.643 357.34C107.171 357.334 107.688 357.604 107.977 358.09L123.477 384.298C123.755 384.768 123.76 385.35 123.492 385.826L108.524 412.342C108.108 413.076 107.179 413.338 106.44 412.922C105.704 412.508 105.445 411.576 105.859 410.84L120.395 385.093L105.343 359.645C104.914 358.918 105.154 357.981 105.882 357.552C106.121 357.411 106.385 357.342 106.643 357.34ZM167.688 390.894C168.216 390.889 168.733 391.158 169.021 391.645L184.767 418.266C185.044 418.736 185.05 419.318 184.782 419.793L169.577 446.726C169.309 447.202 168.806 447.498 168.26 447.504L137.31 447.816C136.466 447.824 135.774 447.147 135.766 446.303C135.757 445.46 136.435 444.768 137.28 444.76L167.346 444.457L181.684 419.061L166.388 393.199C165.959 392.472 166.199 391.536 166.927 391.107C167.166 390.965 167.429 390.897 167.688 390.894ZM122.847 453.011C123.107 453.009 123.37 453.072 123.612 453.209C124.349 453.624 124.608 454.555 124.193 455.291L109.225 481.806C108.956 482.282 108.454 482.578 107.908 482.584L77.4385 482.891C76.5944 482.899 75.9023 482.222 75.8938 481.378C75.8853 480.535 76.5636 479.844 77.4077 479.835L106.994 479.537L121.529 453.79C121.807 453.296 122.319 453.017 122.847 453.011Z"
                            fill="#FFBE98" />
                    </g>
                    <g filter="url(#filter3_d_38_500)">
                        <path
                            d="M631.544 561.14H588.388C587.803 561.14 587.263 560.825 586.971 560.313L565.866 523.392H523.674C523.09 523.392 522.549 523.077 522.257 522.566L500.68 484.818C500.387 484.307 500.387 483.677 500.68 483.165L522.257 445.418C522.549 444.906 523.09 444.591 523.674 444.591H565.866L586.971 407.67C587.263 407.158 587.804 406.844 588.388 406.844H631.544C632.129 406.844 632.669 407.158 632.962 407.67L654.539 445.418C654.83 445.929 654.83 446.559 654.539 447.071L633.434 483.992L654.539 520.912C654.83 521.424 654.83 522.054 654.539 522.566L632.962 560.313C632.669 560.824 632.129 561.14 631.544 561.14ZM589.333 557.833H630.599L651.23 521.739L630.599 485.645H589.352L568.711 521.756L589.333 557.833ZM524.62 520.086H565.866L586.498 483.992L565.866 447.898H524.62L503.988 483.992L524.62 520.086ZM589.352 482.338H630.599L651.23 446.244L630.599 410.15H589.333L568.711 446.228L589.352 482.338ZM593.662 551.593C593.096 551.593 592.546 551.296 592.242 550.766L575.936 522.24C575.644 521.728 575.644 521.098 575.936 520.587L592.242 492.06C592.695 491.269 593.693 490.997 594.478 491.455C595.262 491.911 595.529 492.922 595.078 493.713L579.243 521.413L595.078 549.113C595.529 549.904 595.262 550.915 594.478 551.371C594.221 551.522 593.938 551.593 593.662 551.593ZM528.691 514.621C528.125 514.621 527.575 514.324 527.271 513.794L510.707 484.818C510.415 484.307 510.415 483.677 510.707 483.165L527.271 454.189C527.564 453.677 528.105 453.363 528.689 453.363H561.816C562.72 453.363 563.453 454.103 563.453 455.016C563.453 455.928 562.72 456.669 561.816 456.669H529.634L514.016 483.992L530.107 512.141C530.558 512.932 530.291 513.943 529.507 514.399C529.25 514.55 528.968 514.621 528.691 514.621ZM577.351 447.898C577.074 447.898 576.792 447.827 576.535 447.676C575.751 447.22 575.484 446.209 575.935 445.418L592.242 416.891C592.534 416.379 593.075 416.064 593.659 416.064H626.272C627.176 416.064 627.909 416.805 627.909 417.717C627.909 418.63 627.176 419.371 626.272 419.371H594.604L578.771 447.071C578.468 447.602 577.917 447.898 577.351 447.898Z"
                            fill="#FFBE98" />
                    </g>
                    <path fill-rule="evenodd" clip-rule="evenodd"
                        d="M142.489 55.0101H1183.4C1257.25 55.0101 1317.12 114.88 1317.12 188.734V346.433C1317.12 420.286 1257.25 480.156 1183.4 480.156H142.489C68.6353 480.156 8.76527 420.286 8.76527 346.433V188.733C8.76527 114.88 68.6353 55.0101 142.489 55.0101ZM0.536133 188.733C0.536133 110.335 64.0905 46.781 142.489 46.781H1183.4C1261.8 46.781 1325.35 110.335 1325.35 188.734V346.433C1325.35 424.831 1261.8 488.385 1183.4 488.385H142.489C64.0905 488.385 0.536133 424.831 0.536133 346.433V188.733ZM756.853 46.7811H570.736V53.549H756.853V46.7811Z"
                        fill="#FFBE98" />
                    <path
                        d="M408.621 174.58V103.012H428.974C431.372 103.012 433.771 103.359 436.169 104.053C438.63 104.748 440.807 105.821 442.701 107.272C444.72 108.724 446.361 110.649 447.623 113.047C448.886 115.445 449.517 118.285 449.517 121.567C449.517 123.776 449.233 125.795 448.665 127.625C448.097 129.456 447.308 131.002 446.298 132.264C445.478 133.274 444.594 134.221 443.647 135.104C442.764 135.925 442.196 136.461 441.943 136.713C442.133 136.84 442.543 137.061 443.174 137.376C443.805 137.629 444.783 138.354 446.109 139.553C447.687 140.942 449.043 142.772 450.179 145.044C451.379 147.316 451.978 150.219 451.978 153.753C451.978 159.37 450.59 163.788 447.813 167.007C445.099 170.225 441.659 172.466 437.494 173.728C436.106 174.044 434.623 174.264 433.045 174.391C431.467 174.517 430.11 174.58 428.974 174.58H408.621ZM419.223 112.952V132.359H426.039C426.418 132.359 426.923 132.359 427.554 132.359C428.248 132.359 429.006 132.296 429.826 132.169C430.71 132.106 431.688 131.917 432.761 131.601C433.834 131.223 434.812 130.623 435.695 129.803C436.579 129.045 437.305 127.973 437.873 126.584C438.504 125.196 438.819 123.681 438.819 122.04C438.819 119.137 438.062 117.054 436.547 115.792C435.033 114.467 433.203 113.615 431.057 113.236C430.363 113.173 429.605 113.11 428.785 113.047C427.964 112.984 427.239 112.952 426.607 112.952H419.223ZM419.223 142.204V164.64H427.933C428.248 164.64 428.753 164.64 429.447 164.64C430.205 164.64 430.962 164.577 431.719 164.451C432.666 164.324 433.644 164.072 434.654 163.693C435.727 163.315 436.8 162.715 437.873 161.895C438.63 161.137 439.324 160.128 439.955 158.865C440.65 157.603 441.06 155.836 441.186 153.564C441.186 151.04 440.587 148.894 439.387 147.127C438.251 145.296 436.421 143.94 433.897 143.056C433.076 142.804 432.13 142.614 431.057 142.488C430.047 142.299 429.163 142.204 428.406 142.204H419.223ZM458.636 174.58L480.883 103.012H491.864L514.3 174.58H502.845L496.408 153.753H475.96L469.239 174.58H458.636ZM486.184 119.579L478.895 143.719H493.284L486.184 119.579ZM550.778 164.545V103.012H561.475V164.545H575.486V103.012H586.278V174.58H525.691V103.012H536.388V164.545H550.778ZM638.596 103.012H675.326V113.141H649.199V131.885H657.056C664.566 131.885 670.593 133.684 675.137 137.281C679.681 140.816 681.953 146.212 681.953 153.469C681.953 159.086 680.565 163.567 677.788 166.912C675.074 170.194 671.634 172.466 667.469 173.728C666.081 174.044 664.598 174.264 663.02 174.391C661.442 174.517 660.085 174.58 658.949 174.58H638.596V103.012ZM649.199 141.731V164.64H658.003C661.726 164.64 664.755 163.851 667.09 162.273C669.489 160.696 670.846 157.698 671.161 153.28C671.098 151.197 670.688 149.43 669.93 147.979C669.173 146.527 668.226 145.36 667.09 144.476C665.891 143.529 664.534 142.835 663.02 142.393C661.505 141.952 659.991 141.731 658.476 141.731H649.199ZM741.814 103.012V174.58H731.306V124.028L707.734 174.58H695.711V103.012H706.219V153.753L729.791 103.012H741.814ZM782.741 113.047V158.013C782.741 159.844 782.52 161.768 782.078 163.788C781.636 165.808 780.753 167.732 779.427 169.563C778.039 171.393 776.146 172.876 773.747 174.012C771.412 175.148 768.383 175.716 764.659 175.716C762.135 175.716 759.106 175.18 755.571 174.107V162.936C758.222 164.009 760.115 164.703 761.251 165.019C762.45 165.334 763.744 165.524 765.133 165.587C767.468 165.587 769.172 164.829 770.245 163.315C771.381 161.8 771.949 159.465 771.949 156.309V103.012H812.939V174.58H802.147V113.047H782.741ZM828.969 174.58V103.012H865.51V113.141H839.572V132.169H864.374V142.204H839.572V164.451H866.268V174.58H828.969ZM892.522 174.58V113.141H875.292V103.012H920.448V113.141H903.219V174.58H892.522Z"
                        fill="url(#paint0_linear_38_500)" />
                    <path
                        d="M51.1605 286.579V215.011H71.5138C73.912 215.011 76.3102 215.358 78.7084 216.053C81.1697 216.747 83.3471 217.82 85.2404 219.271C87.26 220.723 88.9008 222.648 90.1631 225.046C91.4253 227.444 92.0564 230.284 92.0564 233.566C92.0564 235.775 91.7724 237.794 91.2044 239.625C90.6364 241.455 89.8475 243.001 88.8377 244.263C88.0173 245.273 87.1337 246.22 86.1871 247.103C85.3035 247.924 84.7355 248.46 84.4831 248.713C84.6724 248.839 85.0826 249.06 85.7137 249.375C86.3448 249.628 87.3231 250.353 88.6484 251.553C90.2262 252.941 91.5831 254.771 92.7191 257.043C93.9182 259.315 94.5177 262.218 94.5177 265.753C94.5177 271.369 93.1293 275.787 90.3524 279.006C87.6386 282.224 84.1991 284.465 80.0337 285.727C78.6453 286.043 77.1622 286.264 75.5844 286.39C74.0066 286.516 72.6498 286.579 71.5138 286.579H51.1605ZM61.7631 224.951V244.358H68.5791C68.9578 244.358 69.4627 244.358 70.0938 244.358C70.788 244.358 71.5453 244.295 72.3658 244.169C73.2493 244.105 74.2275 243.916 75.3004 243.601C76.3733 243.222 77.3515 242.622 78.2351 241.802C79.1186 241.045 79.8444 239.972 80.4124 238.583C81.0435 237.195 81.3591 235.68 81.3591 234.039C81.3591 231.136 80.6017 229.053 79.0871 227.791C77.5724 226.466 75.7422 225.614 73.5964 225.235C72.9022 225.172 72.1449 225.109 71.3244 225.046C70.504 224.983 69.7782 224.951 69.1471 224.951H61.7631ZM61.7631 254.203V276.639H70.4724C70.788 276.639 71.2929 276.639 71.9871 276.639C72.7444 276.639 73.5018 276.576 74.2591 276.45C75.2058 276.324 76.184 276.071 77.1937 275.693C78.2666 275.314 79.3395 274.714 80.4124 273.894C81.1697 273.137 81.864 272.127 82.4951 270.865C83.1893 269.602 83.5995 267.835 83.7257 265.563C83.7257 263.039 83.1262 260.893 81.9271 259.126C80.7911 257.296 78.9609 255.939 76.4364 255.055C75.616 254.803 74.6693 254.613 73.5964 254.487C72.5866 254.298 71.7031 254.203 70.9458 254.203H61.7631ZM141.819 286.579V215.011H152.421V241.897L173.627 215.011H186.407L159.616 248.713L190.004 286.579H176.372L152.421 256.949V286.579H141.819ZM247.498 215.011V286.579H236.99V236.027L213.418 286.579H201.395V215.011H211.903V265.753L235.475 215.011H247.498ZM266.084 286.579V215.011H276.781V244.453H300.447V215.011H311.334V286.579H300.447V254.487H276.781V286.579H266.084ZM329.163 286.579V215.011H365.704V225.141H339.765V244.169H364.568V254.203H339.765V276.45H366.461V286.579H329.163ZM416.476 286.579H406.82L391.39 237.353V286.579H381.355V215.011H394.987L411.648 268.498L428.31 215.011H442.036V286.579H431.907V237.353L416.476 286.579ZM452.291 286.579L474.538 215.011H485.519L507.955 286.579H496.501L490.063 265.753H469.615L462.894 286.579H452.291ZM479.839 231.578L472.55 255.718H486.939L479.839 231.578ZM530.896 286.579V225.141H513.667V215.011H558.822V225.141H541.593V286.579H530.896ZM596.815 287.715C592.018 287.715 587.79 286.705 584.13 284.686C580.469 282.666 577.377 279.952 574.852 276.544C572.454 273.2 570.655 269.35 569.456 264.995C568.257 260.577 567.658 255.781 567.658 250.606C567.658 245.809 568.257 241.265 569.456 236.974C570.655 232.619 572.423 228.706 574.758 225.235C577.345 221.827 580.469 219.05 584.13 216.905C587.79 214.759 592.018 213.686 596.815 213.686C601.611 213.686 605.808 214.696 609.406 216.715C613.066 218.735 616.158 221.449 618.683 224.857C621.018 228.201 622.817 232.051 624.079 236.406C625.341 240.761 625.972 245.462 625.972 250.511C625.972 255.434 625.404 260.041 624.268 264.333C623.195 268.624 621.491 272.569 619.156 276.166C616.758 279.637 613.697 282.445 609.974 284.591C606.25 286.674 601.864 287.715 596.815 287.715ZM578.639 250.511C578.639 254.298 579.049 257.832 579.87 261.114C580.69 264.333 581.889 267.267 583.467 269.918C584.918 272.379 586.749 274.336 588.958 275.787C591.166 277.176 593.786 277.87 596.815 277.87C599.781 277.87 602.369 277.207 604.578 275.882C606.786 274.493 608.648 272.6 610.163 270.202C611.678 267.741 612.814 264.869 613.571 261.587C614.391 258.242 614.802 254.519 614.802 250.417C614.802 246.756 614.391 243.253 613.571 239.909C612.814 236.564 611.646 233.724 610.068 231.389C608.554 228.927 606.692 227.002 604.483 225.614C602.274 224.225 599.686 223.531 596.72 223.531C594.006 223.594 591.545 224.289 589.336 225.614C587.19 226.939 585.329 228.801 583.751 231.199C582.173 233.471 580.911 236.28 579.964 239.625C579.081 242.969 578.639 246.598 578.639 250.511ZM639.446 286.579V215.011H676.082V225.141H650.143V286.579H639.446ZM700.632 258.653V248.334H705.176C707.385 248.334 709.278 248.176 710.856 247.861C712.434 247.482 713.79 246.851 714.926 245.967C716.126 245.021 717.104 243.821 717.861 242.37C718.682 240.855 719.092 238.867 719.092 236.406C719.092 234.26 718.65 232.493 717.766 231.105C716.946 229.716 715.968 228.58 714.832 227.697C713.633 226.813 712.181 226.182 710.477 225.803C708.836 225.361 707.29 225.141 705.838 225.141H698.738V286.579H688.23V215.011H705.46C708.426 215.011 711.329 215.358 714.169 216.053C717.072 216.684 719.723 217.788 722.121 219.366C724.519 221.07 726.444 223.31 727.896 226.087C729.347 228.864 730.073 232.304 730.073 236.406C730.073 240.571 729.347 244.105 727.896 247.009C726.444 249.912 724.582 252.215 722.31 253.919C719.849 255.686 717.23 256.917 714.453 257.611C711.676 258.305 708.678 258.653 705.46 258.653H700.632ZM736.636 286.579L758.883 215.011H769.864L792.3 286.579H780.845L774.408 265.753H753.96L747.239 286.579H736.636ZM764.184 231.578L756.895 255.718H771.284L764.184 231.578ZM824.234 223.531V215.011H835.121V223.342C838.024 223.594 841.148 224.541 844.493 226.182C847.837 227.76 850.677 229.811 853.013 232.335C855.285 234.797 857.052 237.573 858.314 240.666C859.576 243.758 860.207 246.977 860.207 250.322C860.207 253.793 859.576 257.106 858.314 260.262C857.052 263.417 855.316 266.226 853.107 268.687C850.709 271.275 847.837 273.421 844.493 275.125C841.148 276.765 838.024 277.712 835.121 277.964V286.579H824.234V277.775C821.394 277.523 818.365 276.544 815.146 274.841C811.927 273.137 809.182 271.022 806.91 268.498C804.827 266.037 803.186 263.26 801.987 260.167C800.788 257.012 800.189 253.761 800.189 250.417C800.189 247.072 800.788 243.885 801.987 240.855C803.186 237.826 804.827 235.081 806.91 232.619C809.182 230.221 811.927 228.17 815.146 226.466C818.365 224.762 821.394 223.784 824.234 223.531ZM849.037 250.227C849.037 245.557 847.553 241.676 844.587 238.583C841.621 235.428 838.465 233.629 835.121 233.187V267.93C838.529 267.488 841.684 265.626 844.587 262.345C847.553 259.063 849.037 255.024 849.037 250.227ZM811.17 250.322C811.17 255.055 812.527 259.031 815.241 262.25C818.017 265.469 821.015 267.33 824.234 267.835V233.282C820.952 233.787 817.954 235.617 815.241 238.773C812.527 241.865 811.17 245.715 811.17 250.322ZM920.446 215.011V286.579H909.938V236.027L886.366 286.579H874.344V215.011H884.852V265.753L908.424 215.011H920.446ZM982.957 215.011V286.579H972.165V259.978C971.913 260.357 971.092 261.114 969.704 262.25C966.044 265.595 961.531 267.236 956.167 267.173C953.705 267.173 951.307 266.762 948.972 265.942C946.7 265.121 944.681 263.859 942.913 262.155C941.209 260.514 939.853 258.495 938.843 256.097C937.896 253.635 937.423 250.858 937.423 247.766V215.011H948.499V243.885C948.499 248.113 949.193 251.426 950.581 253.825C951.97 256.16 954.273 257.327 957.492 257.327C960.269 257.327 963.014 256.254 965.728 254.109C968.442 251.9 970.335 248.681 971.408 244.453C971.66 243.317 971.85 242.212 971.976 241.139C972.102 240.066 972.165 238.867 972.165 237.542V215.011H982.957ZM1000.03 286.579V215.011H1036.57V225.141H1010.63V244.169H1035.43V254.203H1010.63V276.45H1037.33V286.579H1000.03ZM1097.38 269.35V282.698C1094.98 284.339 1092.17 285.601 1088.95 286.484C1085.73 287.305 1081.88 287.715 1077.4 287.715C1073.3 287.715 1069.1 286.548 1064.81 284.212C1060.58 281.877 1057.27 278.848 1054.87 275.125C1052.47 271.401 1050.74 267.362 1049.66 263.007C1048.59 258.589 1048.06 254.077 1048.06 249.47C1048.06 244.863 1048.59 240.477 1049.66 236.311C1050.8 232.146 1052.63 228.391 1055.16 225.046C1057.55 221.701 1060.58 218.987 1064.24 216.905C1067.97 214.759 1072.29 213.686 1077.21 213.686C1081.69 213.686 1085.83 214.822 1089.61 217.094C1093.4 219.366 1096.21 222.585 1098.04 226.75C1098.67 228.138 1099.08 229.653 1099.27 231.294C1099.46 232.935 1099.59 234.923 1099.65 237.258H1088.48C1088.48 234.418 1088.23 232.335 1087.72 231.01C1087.28 229.621 1086.65 228.328 1085.83 227.129C1084.94 226.056 1083.65 225.235 1081.95 224.667C1080.31 224.036 1078.73 223.721 1077.21 223.721C1074.75 223.721 1072.42 224.257 1070.21 225.33C1068.06 226.403 1066.2 228.075 1064.62 230.347C1062.86 232.619 1061.5 235.365 1060.55 238.583C1059.6 241.802 1059.13 245.525 1059.13 249.754C1059.13 252.152 1059.42 254.929 1059.98 258.085C1060.55 261.177 1061.5 264.206 1062.82 267.173C1064.4 270.076 1066.67 272.569 1069.64 274.651C1072.67 276.671 1075.76 277.68 1078.92 277.68C1082.51 277.68 1085.7 277.081 1088.48 275.882C1091.26 274.62 1094.22 272.442 1097.38 269.35ZM1112.37 286.579V215.011H1122.97V241.897L1144.17 215.011H1156.95L1130.16 248.713L1160.55 286.579H1146.92L1122.97 256.949V286.579H1112.37ZM1197.88 287.715C1193.08 287.715 1188.86 286.705 1185.2 284.686C1181.53 282.666 1178.44 279.952 1175.92 276.544C1173.52 273.2 1171.72 269.35 1170.52 264.995C1169.32 260.577 1168.72 255.781 1168.72 250.606C1168.72 245.809 1169.32 241.265 1170.52 236.974C1171.72 232.619 1173.49 228.706 1175.82 225.235C1178.41 221.827 1181.53 219.05 1185.2 216.905C1188.86 214.759 1193.08 213.686 1197.88 213.686C1202.68 213.686 1206.87 214.696 1210.47 216.715C1214.13 218.735 1217.22 221.449 1219.75 224.857C1222.08 228.201 1223.88 232.051 1225.14 236.406C1226.41 240.761 1227.04 245.462 1227.04 250.511C1227.04 255.434 1226.47 260.041 1225.33 264.333C1224.26 268.624 1222.56 272.569 1220.22 276.166C1217.82 279.637 1214.76 282.445 1211.04 284.591C1207.32 286.674 1202.93 287.715 1197.88 287.715ZM1179.7 250.511C1179.7 254.298 1180.11 257.832 1180.94 261.114C1181.76 264.333 1182.95 267.267 1184.53 269.918C1185.98 272.379 1187.81 274.336 1190.02 275.787C1192.23 277.176 1194.85 277.87 1197.88 277.87C1200.85 277.87 1203.43 277.207 1205.64 275.882C1207.85 274.493 1209.71 272.6 1211.23 270.202C1212.74 267.741 1213.88 264.869 1214.64 261.587C1215.46 258.242 1215.87 254.519 1215.87 250.417C1215.87 246.756 1215.46 243.253 1214.64 239.909C1213.88 236.564 1212.71 233.724 1211.13 231.389C1209.62 228.927 1207.76 227.002 1205.55 225.614C1203.34 224.225 1200.75 223.531 1197.79 223.531C1195.07 223.594 1192.61 224.289 1190.4 225.614C1188.26 226.939 1186.39 228.801 1184.82 231.199C1183.24 233.471 1181.98 236.28 1181.03 239.625C1180.15 242.969 1179.7 246.598 1179.7 250.511ZM1241.55 286.579V215.011H1278.09V225.141H1252.16V244.169H1276.96V254.203H1252.16V276.45H1278.85V286.579H1241.55Z"
                        fill="url(#paint1_linear_38_500)" />
                    <path
                        d="M360.513 337.045V398.578H349.816V327.01H395.066V398.578H384.179V337.045H360.513ZM432.68 360.238L446.596 327.01H457.956L428.325 398.578H416.776L426.905 373.87L406.647 327.01H418.291L432.68 360.238ZM480.991 398.578V337.14H463.762V327.01H508.918V337.14H491.688V398.578H480.991ZM521.255 398.578V327.01H557.797V337.14H531.858V356.168H556.661V366.202H531.858V388.449H558.554V398.578H521.255ZM598.345 388.544V327.01H609.043V388.544H623.053V327.01H633.845V398.578H573.259V327.01H583.956V388.544H598.345ZM651.863 398.578V327.01H688.404V337.14H662.466V356.168H687.268V366.202H662.466V388.449H689.162V398.578H651.863ZM749.211 381.349V394.697C746.813 396.338 744.005 397.6 740.786 398.484C737.567 399.304 733.718 399.714 729.237 399.714C725.134 399.714 720.938 398.547 716.646 396.212C712.418 393.876 709.104 390.847 706.706 387.124C704.308 383.4 702.572 379.361 701.499 375.006C700.427 370.588 699.89 366.076 699.89 361.469C699.89 356.862 700.427 352.476 701.499 348.31C702.635 344.145 704.466 340.39 706.99 337.045C709.388 333.7 712.418 330.986 716.078 328.904C719.802 326.758 724.125 325.685 729.047 325.685C733.528 325.685 737.662 326.821 741.449 329.093C745.235 331.365 748.044 334.584 749.874 338.749C750.505 340.137 750.915 341.652 751.105 343.293C751.294 344.934 751.42 346.922 751.483 349.257H740.313C740.313 346.417 740.06 344.334 739.555 343.009C739.114 341.62 738.482 340.327 737.662 339.128C736.778 338.055 735.485 337.234 733.781 336.666C732.14 336.035 730.562 335.72 729.047 335.72C726.586 335.72 724.251 336.256 722.042 337.329C719.896 338.402 718.035 340.074 716.457 342.346C714.69 344.618 713.333 347.364 712.386 350.582C711.439 353.801 710.966 357.524 710.966 361.753C710.966 364.151 711.25 366.928 711.818 370.084C712.386 373.176 713.333 376.205 714.658 379.172C716.236 382.075 718.508 384.568 721.474 386.65C724.503 388.67 727.596 389.68 730.751 389.68C734.349 389.68 737.536 389.08 740.313 387.881C743.09 386.619 746.056 384.441 749.211 381.349ZM777.074 398.578V337.14H759.845V327.01H805.001V337.14H787.772V398.578H777.074ZM817.244 398.578V327.01H837.598C839.996 327.01 842.394 327.357 844.792 328.052C847.254 328.746 849.431 329.819 851.324 331.27C853.344 332.722 854.985 334.647 856.247 337.045C857.509 339.443 858.14 342.283 858.14 345.565C858.14 347.774 857.856 349.793 857.288 351.624C856.72 353.454 855.931 355 854.922 356.262C854.101 357.272 853.218 358.219 852.271 359.102C851.387 359.923 850.819 360.459 850.567 360.712C850.756 360.838 851.166 361.059 851.798 361.374C852.429 361.627 853.407 362.352 854.732 363.552C856.31 364.94 857.667 366.77 858.803 369.042C860.002 371.314 860.602 374.217 860.602 377.752C860.602 383.368 859.213 387.786 856.436 391.005C853.722 394.224 850.283 396.464 846.118 397.726C844.729 398.042 843.246 398.263 841.668 398.389C840.09 398.515 838.734 398.578 837.598 398.578H817.244ZM827.847 336.95V356.357H834.663C835.042 356.357 835.546 356.357 836.178 356.357C836.872 356.357 837.629 356.294 838.45 356.168C839.333 356.104 840.311 355.915 841.384 355.6C842.457 355.221 843.435 354.621 844.319 353.801C845.202 353.044 845.928 351.971 846.496 350.582C847.127 349.194 847.443 347.679 847.443 346.038C847.443 343.135 846.686 341.052 845.171 339.79C843.656 338.465 841.826 337.613 839.68 337.234C838.986 337.171 838.229 337.108 837.408 337.045C836.588 336.982 835.862 336.95 835.231 336.95H827.847ZM827.847 366.202V388.638H836.556C836.872 388.638 837.377 388.638 838.071 388.638C838.828 388.638 839.586 388.575 840.343 388.449C841.29 388.323 842.268 388.07 843.278 387.692C844.35 387.313 845.423 386.713 846.496 385.893C847.254 385.136 847.948 384.126 848.579 382.864C849.273 381.601 849.683 379.834 849.81 377.562C849.81 375.038 849.21 372.892 848.011 371.125C846.875 369.295 845.045 367.938 842.52 367.054C841.7 366.802 840.753 366.612 839.68 366.486C838.67 366.297 837.787 366.202 837.03 366.202H827.847ZM920.557 327.01V398.578H910.049V348.026L886.477 398.578H874.454V327.01H884.962V377.752L908.534 327.01H920.557ZM938.953 398.578V327.01H975.494V337.14H949.556V356.168H974.358V366.202H949.556V388.449H976.252V398.578H938.953Z"
                        fill="url(#paint2_linear_38_500)" />
                    <defs>
                        <filter id="filter0_d_38_500" x="673.272" y="384.216" width="187.213" height="176.926"
                            filterUnits="userSpaceOnUse" color-interpolation-filters="sRGB">
                            <feFlood flood-opacity="0" result="BackgroundImageFix" />
                            <feColorMatrix in="SourceAlpha" type="matrix"
                                values="0 0 0 0 0 0 0 0 0 0 0 0 0 0 0 0 0 0 127 0" result="hardAlpha" />
                            <feOffset dx="32.9165" dy="-22.6301" />
                            <feComposite in2="hardAlpha" operator="out" />
                            <feColorMatrix type="matrix"
                                values="0 0 0 0 0.721569 0 0 0 0 0.588235 0 0 0 0 0.752941 0 0 0 0.25 0" />
                            <feBlend mode="normal" in2="BackgroundImageFix" result="effect1_dropShadow_38_500" />
                            <feBlend mode="normal" in="SourceGraphic" in2="effect1_dropShadow_38_500" result="shape" />
                        </filter>
                        <filter id="filter1_d_38_500" x="1134.19" y="0.0120831" width="174.991" height="163.952"
                            filterUnits="userSpaceOnUse" color-interpolation-filters="sRGB">
                            <feFlood flood-opacity="0" result="BackgroundImageFix" />
                            <feColorMatrix in="SourceAlpha" type="matrix"
                                values="0 0 0 0 0 0 0 0 0 0 0 0 0 0 0 0 0 0 127 0" result="hardAlpha" />
                            <feOffset dx="30.4847" dy="-20.9583" />
                            <feComposite in2="hardAlpha" operator="out" />
                            <feColorMatrix type="matrix"
                                values="0 0 0 0 0.721569 0 0 0 0 0.588235 0 0 0 0 0.752941 0 0 0 0.25 0" />
                            <feBlend mode="normal" in2="BackgroundImageFix" result="effect1_dropShadow_38_500" />
                            <feBlend mode="normal" in="SourceGraphic" in2="effect1_dropShadow_38_500" result="shape" />
                        </filter>
                        <filter id="filter2_d_38_500" x="49.8413" y="327.509" width="174.991" height="163.952"
                            filterUnits="userSpaceOnUse" color-interpolation-filters="sRGB">
                            <feFlood flood-opacity="0" result="BackgroundImageFix" />
                            <feColorMatrix in="SourceAlpha" type="matrix"
                                values="0 0 0 0 0 0 0 0 0 0 0 0 0 0 0 0 0 0 127 0" result="hardAlpha" />
                            <feOffset dx="30.4847" dy="-20.9583" />
                            <feComposite in2="hardAlpha" operator="out" />
                            <feColorMatrix type="matrix"
                                values="0 0 0 0 0.721569 0 0 0 0 0.588235 0 0 0 0 0.752941 0 0 0 0.25 0" />
                            <feBlend mode="normal" in2="BackgroundImageFix" result="effect1_dropShadow_38_500" />
                            <feBlend mode="normal" in="SourceGraphic" in2="effect1_dropShadow_38_500" result="shape" />
                        </filter>
                        <filter id="filter3_d_38_500" x="467.544" y="384.213" width="187.213" height="176.926"
                            filterUnits="userSpaceOnUse" color-interpolation-filters="sRGB">
                            <feFlood flood-opacity="0" result="BackgroundImageFix" />
                            <feColorMatrix in="SourceAlpha" type="matrix"
                                values="0 0 0 0 0 0 0 0 0 0 0 0 0 0 0 0 0 0 127 0" result="hardAlpha" />
                            <feOffset dx="-32.9165" dy="-22.6301" />
                            <feComposite in2="hardAlpha" operator="out" />
                            <feColorMatrix type="matrix"
                                values="0 0 0 0 0.721569 0 0 0 0 0.588235 0 0 0 0 0.752941 0 0 0 0.25 0" />
                            <feBlend mode="normal" in2="BackgroundImageFix" result="effect1_dropShadow_38_500" />
                            <feBlend mode="normal" in="SourceGraphic" in2="effect1_dropShadow_38_500" result="shape" />
                        </filter>
                        <linearGradient id="paint0_linear_38_500" x1="663.444" y1="91" x2="663.444" y2="193"
                            gradientUnits="userSpaceOnUse">
                            <stop stop-color="white" />
                            <stop offset="0.705" stop-color="#FFD4BB" />
                            <stop offset="1" stop-color="#FFBE98" />
                        </linearGradient>
                        <linearGradient id="paint1_linear_38_500" x1="663.444" y1="202.999" x2="663.444" y2="304.999"
                            gradientUnits="userSpaceOnUse">
                            <stop stop-color="white" />
                            <stop offset="0.705" stop-color="#FFD4BB" />
                            <stop offset="1" stop-color="#FFBE98" />
                        </linearGradient>
                        <linearGradient id="paint2_linear_38_500" x1="663.444" y1="314.998" x2="663.444" y2="416.998"
                            gradientUnits="userSpaceOnUse">
                            <stop stop-color="white" />
                            <stop offset="0.705" stop-color="#FFD4BB" />
                            <stop offset="1" stop-color="#FFBE98" />
                        </linearGradient>
                    </defs>
                </svg>