<svg width="489" height="547" viewBox="0 0 489 547" fill="none" xmlns="http://www.w3.org/2000/svg">
                    <g opacity="0.3" filter="url(#filter0_i_360_461)">
                    <path d="M465.723 155.057L478.765 179.688C496.264 212.737 490.192 253.33 463.788 279.812C445.871 297.783 436.887 322.799 439.277 348.062L440.58 361.834C445.536 414.216 414.227 463.256 364.625 480.806L263.124 516.717C255.501 519.415 248.694 524.016 243.349 530.084C230.345 544.846 209.58 550.052 191.151 543.169L187.18 541.686C155.142 529.721 142.354 491.218 160.866 462.463L172.673 444.122C193.38 411.96 184.958 369.182 153.606 347.267L52.1197 276.329C34.5386 264.04 21.2372 246.565 14.075 226.345L7.16409 206.836C0.262361 187.352 -1.1649 166.348 3.03758 146.11L3.53666 143.706C10.0635 112.274 40.841 91.7407 72.4872 97.1363C102.87 102.317 132.043 81.4241 136.268 50.8934C143.391 -0.576946 209.068 -17.9174 240.67 23.3288L268.01 59.0124C282.475 77.8907 304.825 89.0584 328.606 89.2901L358.151 89.5779C403.305 90.0178 444.593 115.149 465.723 155.057Z" fill="#FFBE98"/>
                    <path d="M465.723 155.057L478.765 179.688C496.264 212.737 490.192 253.33 463.788 279.812C445.871 297.783 436.887 322.799 439.277 348.062L440.58 361.834C445.536 414.216 414.227 463.256 364.625 480.806L263.124 516.717C255.501 519.415 248.694 524.016 243.349 530.084C230.345 544.846 209.58 550.052 191.151 543.169L187.18 541.686C155.142 529.721 142.354 491.218 160.866 462.463L172.673 444.122C193.38 411.96 184.958 369.182 153.606 347.267L52.1197 276.329C34.5386 264.04 21.2372 246.565 14.075 226.345L7.16409 206.836C0.262361 187.352 -1.1649 166.348 3.03758 146.11L3.53666 143.706C10.0635 112.274 40.841 91.7407 72.4872 97.1363C102.87 102.317 132.043 81.4241 136.268 50.8934C143.391 -0.576946 209.068 -17.9174 240.67 23.3288L268.01 59.0124C282.475 77.8907 304.825 89.0584 328.606 89.2901L358.151 89.5779C403.305 90.0178 444.593 115.149 465.723 155.057Z" fill="url(#paint0_radial_360_461)"/>
                    <path d="M465.723 155.057L478.765 179.688C496.264 212.737 490.192 253.33 463.788 279.812C445.871 297.783 436.887 322.799 439.277 348.062L440.58 361.834C445.536 414.216 414.227 463.256 364.625 480.806L263.124 516.717C255.501 519.415 248.694 524.016 243.349 530.084C230.345 544.846 209.58 550.052 191.151 543.169L187.18 541.686C155.142 529.721 142.354 491.218 160.866 462.463L172.673 444.122C193.38 411.96 184.958 369.182 153.606 347.267L52.1197 276.329C34.5386 264.04 21.2372 246.565 14.075 226.345L7.16409 206.836C0.262361 187.352 -1.1649 166.348 3.03758 146.11L3.53666 143.706C10.0635 112.274 40.841 91.7407 72.4872 97.1363C102.87 102.317 132.043 81.4241 136.268 50.8934C143.391 -0.576946 209.068 -17.9174 240.67 23.3288L268.01 59.0124C282.475 77.8907 304.825 89.0584 328.606 89.2901L358.151 89.5779C403.305 90.0178 444.593 115.149 465.723 155.057Z" fill="url(#paint1_radial_360_461)"/>
                    </g>
                    <defs>
                    <filter id="filter0_i_360_461" x="0.676758" y="0.344925" width="493.004" height="550.824" filterUnits="userSpaceOnUse" color-interpolation-filters="sRGB">
                    <feFlood flood-opacity="0" result="BackgroundImageFix"/>
                    <feBlend mode="normal" in="SourceGraphic" in2="BackgroundImageFix" result="shape"/>
                    <feColorMatrix in="SourceAlpha" type="matrix" values="0 0 0 0 0 0 0 0 0 0 0 0 0 0 0 0 0 0 127 0" result="hardAlpha"/>
                    <feOffset dx="5" dy="5"/>
                    <feGaussianBlur stdDeviation="50"/>
                    <feComposite in2="hardAlpha" operator="arithmetic" k2="-1" k3="1"/>
                    <feColorMatrix type="matrix" values="0 0 0 0 0.835294 0 0 0 0 0.894118 0 0 0 0 0.984314 0 0 0 1 0"/>
                    <feBlend mode="normal" in2="shape" result="effect1_innerShadow_360_461"/>
                    </filter>
                    <radialGradient id="paint0_radial_360_461" cx="0" cy="0" r="1" gradientUnits="userSpaceOnUse" gradientTransform="translate(195.407 482.507) rotate(-125.365) scale(285.277 284.764)">
                    <stop stop-color="#FD9E67"/>
                    <stop offset="1" stop-color="#FFBE98" stop-opacity="0"/>
                    </radialGradient>
                    <radialGradient id="paint1_radial_360_461" cx="0" cy="0" r="1" gradientUnits="userSpaceOnUse" gradientTransform="translate(310.85 246.484) rotate(151.668) scale(224.323 224.526)">
                    <stop stop-color="#FFBE98"/>
                    <stop offset="0.745" stop-color="#FFBE98" stop-opacity="0"/>
                    </radialGradient>
                    </defs>
                    </svg>

