<svg width="490" height="547" viewBox="0 0 490 547" fill="none" xmlns="http://www.w3.org/2000/svg">
                    <g opacity="0.3" filter="url(#filter0_i_360_463)">
                    <path d="M23.7513 154.944L10.6379 179.659C-6.90003 212.713 -0.820717 253.34 25.6243 279.813C43.5685 297.775 52.567 322.805 50.1681 348.081L48.8616 361.848C43.8922 414.207 75.2023 463.228 124.797 480.737L226.647 516.693C234.285 519.389 241.106 523.991 246.465 530.064C259.492 544.825 280.269 550.029 298.715 543.151L302.668 541.677C334.787 529.702 347.602 491.099 329.023 462.293L317.286 444.096C296.55 411.946 304.975 369.15 336.352 347.259L438.143 276.24C455.722 263.975 469.028 246.521 476.2 226.321L483.123 206.819C490.049 187.31 491.483 166.274 487.268 146.005L486.799 143.752C480.251 112.259 449.381 91.6928 417.671 97.0923C387.257 102.271 358.027 81.3637 353.793 50.8037C346.658 -0.698158 280.958 -18.0727 249.297 23.1692L221.805 58.9791C207.306 77.8653 184.928 89.035 161.119 89.2691L131.256 89.5627C86.1469 90.0063 44.8952 115.094 23.7513 154.944Z" fill="#FFBE98"/>
                    <path d="M23.7513 154.944L10.6379 179.659C-6.90003 212.713 -0.820717 253.34 25.6243 279.813C43.5685 297.775 52.567 322.805 50.1681 348.081L48.8616 361.848C43.8922 414.207 75.2023 463.228 124.797 480.737L226.647 516.693C234.285 519.389 241.106 523.991 246.465 530.064C259.492 544.825 280.269 550.029 298.715 543.151L302.668 541.677C334.787 529.702 347.602 491.099 329.023 462.293L317.286 444.096C296.55 411.946 304.975 369.15 336.352 347.259L438.143 276.24C455.722 263.975 469.028 246.521 476.2 226.321L483.123 206.819C490.049 187.31 491.483 166.274 487.268 146.005L486.799 143.752C480.251 112.259 449.381 91.6928 417.671 97.0923C387.257 102.271 358.027 81.3637 353.793 50.8037C346.658 -0.698158 280.958 -18.0727 249.297 23.1692L221.805 58.9791C207.306 77.8653 184.928 89.035 161.119 89.2691L131.256 89.5627C86.1469 90.0063 44.8952 115.094 23.7513 154.944Z" fill="url(#paint0_radial_360_463)"/>
                    <path d="M23.7513 154.944L10.6379 179.659C-6.90003 212.713 -0.820717 253.34 25.6243 279.813C43.5685 297.775 52.567 322.805 50.1681 348.081L48.8616 361.848C43.8922 414.207 75.2023 463.228 124.797 480.737L226.647 516.693C234.285 519.389 241.106 523.991 246.465 530.064C259.492 544.825 280.269 550.029 298.715 543.151L302.668 541.677C334.787 529.702 347.602 491.099 329.023 462.293L317.286 444.096C296.55 411.946 304.975 369.15 336.352 347.259L438.143 276.24C455.722 263.975 469.028 246.521 476.2 226.321L483.123 206.819C490.049 187.31 491.483 166.274 487.268 146.005L486.799 143.752C480.251 112.259 449.381 91.6928 417.671 97.0923C387.257 102.271 358.027 81.3637 353.793 50.8037C346.658 -0.698158 280.958 -18.0727 249.297 23.1692L221.805 58.9791C207.306 77.8653 184.928 89.035 161.119 89.2691L131.256 89.5627C86.1469 90.0063 44.8952 115.094 23.7513 154.944Z" fill="url(#paint1_radial_360_463)"/>
                    </g>
                    <defs>
                    <filter id="filter0_i_360_463" x="0.697266" y="0.201508" width="493.938" height="550.947" filterUnits="userSpaceOnUse" color-interpolation-filters="sRGB">
                    <feFlood flood-opacity="0" result="BackgroundImageFix"/>
                    <feBlend mode="normal" in="SourceGraphic" in2="BackgroundImageFix" result="shape"/>
                    <feColorMatrix in="SourceAlpha" type="matrix" values="0 0 0 0 0 0 0 0 0 0 0 0 0 0 0 0 0 0 127 0" result="hardAlpha"/>
                    <feOffset dx="5" dy="5"/>
                    <feGaussianBlur stdDeviation="50"/>
                    <feComposite in2="hardAlpha" operator="arithmetic" k2="-1" k3="1"/>
                    <feColorMatrix type="matrix" values="0 0 0 0 0.835294 0 0 0 0 0.894118 0 0 0 0 0.984314 0 0 0 1 0"/>
                    <feBlend mode="normal" in2="shape" result="effect1_innerShadow_360_463"/>
                    </filter>
                    <radialGradient id="paint0_radial_360_463" cx="0" cy="0" r="1" gradientUnits="userSpaceOnUse" gradientTransform="translate(294.499 482.474) rotate(-54.5807) scale(285.493 285.102)">
                    <stop stop-color="#FD9E67"/>
                    <stop offset="1" stop-color="#FFBE98" stop-opacity="0"/>
                    </radialGradient>
                    <radialGradient id="paint1_radial_360_463" cx="0" cy="0" r="1" gradientUnits="userSpaceOnUse" gradientTransform="translate(178.857 246.463) rotate(28.2827) scale(224.64 224.646)">
                    <stop stop-color="#FFBE98"/>
                    <stop offset="0.745" stop-color="#FFBE98" stop-opacity="0"/>
                    </radialGradient>
                    </defs>
                    </svg>