<svg width="22" height="22" viewBox="0 0 22 22" fill="none" xmlns="http://www.w3.org/2000/svg">
<path d="M3.66681 5.271C3.66681 4.35931 4.02897 3.48497 4.67363 2.84032C5.31829 2.19566 6.19263 1.8335 7.10431 1.8335H14.896C15.8077 1.8335 16.682 2.19566 17.3267 2.84032C17.9713 3.48497 18.3335 4.35931 18.3335 5.271V17.3948C18.3335 19.8176 15.4286 21.056 13.6805 19.3803L11.6794 17.4617C11.4967 17.2864 11.2533 17.1885 11.0001 17.1885C10.7469 17.1885 10.5036 17.2864 10.3209 17.4617L8.31981 19.3803C6.57173 21.056 3.66681 19.8176 3.66681 17.3948V5.271ZM7.10431 3.2085C6.5573 3.2085 6.0327 3.42579 5.6459 3.81259C5.25911 4.19938 5.04181 4.72399 5.04181 5.271V17.3948C5.04181 18.6057 6.49381 19.2254 7.36831 18.3876L9.37031 16.469C9.80891 16.0485 10.393 15.8138 11.0006 15.8138C11.6082 15.8138 12.1923 16.0485 12.6309 16.469L14.632 18.3876C15.5065 19.2254 16.9585 18.6057 16.9585 17.3948V5.271C16.9585 4.72399 16.7412 4.19938 16.3544 3.81259C15.9676 3.42579 15.443 3.2085 14.896 3.2085H7.10431Z" fill="white" fill-opacity="0.96"/>
</svg>
