<svg width="85" height="214" viewBox="0 0 85 214" fill="none" xmlns="http://www.w3.org/2000/svg">
<g clip-path="url(#clip0_0_226)">
<g clip-path="url(#clip1_0_226)">
<path d="M32.7057 65.7687V42.3081C32.7057 33.9293 34.9401 31.1364 40.5259 31.1364C46.3911 31.1364 48.6255 33.9293 48.6255 42.5874V71.6339C48.6255 80.8506 47.5083 83.3642 39.6881 83.3642H24.8855V115.762H41.9224C49.184 115.762 50.3012 119.114 50.3012 126.375V169.666C50.3012 178.045 47.5083 181.955 41.6431 181.955C35.778 181.955 32.4264 178.045 32.4264 169.666V135.592H1.14556V177.766C1.14556 197.596 10.6415 213.515 37.733 213.515H46.3911C68.4553 213.515 82.9785 197.596 82.9785 172.459V121.348C82.9785 106.266 77.3927 100.122 67.8967 96.491C75.4376 92.5809 81.0235 85.5985 81.0235 63.8137V40.0737C81.0235 17.1717 69.8517 1.25195 43.8775 1.25195H36.0573C10.3622 1.25195 3.3799 23.0368 3.3799 39.5151V65.7687H32.7057Z" fill="url(#paint0_linear_0_226)"/>
</g>
</g>
<defs>
<linearGradient id="paint0_linear_0_226" x1="7.9272" y1="-2.31101" x2="84.1101" y2="203.714" gradientUnits="userSpaceOnUse">
<stop stop-color="white"/>
<stop offset="1" stop-color="white" stop-opacity="0"/>
</linearGradient>
<clipPath id="clip0_0_226">
<rect width="83.47" height="213.33" fill="white" transform="translate(0.640137 0.329956)"/>
</clipPath>
<clipPath id="clip1_0_226">
<rect width="83.47" height="213.312" fill="white" transform="translate(0.640137 0.338867)"/>
</clipPath>
</defs>
</svg>
