<svg width="175" height="38" viewBox="0 0 175 38" fill="none" xmlns="http://www.w3.org/2000/svg">
<path d="M9.52753 0.773786C11.004 0.773786 12.3222 1.02865 13.4822 1.53837C14.6423 2.03051 15.6178 2.75993 16.4087 3.72664C17.2173 4.69335 17.8237 5.87098 18.2279 7.25953C18.6498 8.64807 18.8607 10.2212 18.8607 11.9788C18.8607 12.7346 18.7904 13.5431 18.6498 14.4044C18.5091 15.2481 18.2806 16.0829 17.9643 16.909C17.6479 17.7351 17.2436 18.5349 16.7515 19.3082C16.2593 20.064 15.653 20.7319 14.9323 21.312C14.2293 21.892 13.4032 22.3578 12.454 22.7093C11.5225 23.0433 10.4591 23.2102 9.26388 23.2102H5.2037C5.23885 25.46 5.2828 27.7626 5.33553 30.1178C5.40583 32.4555 5.51129 34.7492 5.6519 36.999H0.721685C0.827144 35.505 0.906239 33.9759 0.958968 32.4115C1.02927 30.8297 1.082 29.2653 1.11716 27.7186C1.15231 26.1543 1.17868 24.6251 1.19625 23.1311C1.21383 21.6371 1.22262 20.2134 1.22262 18.86C1.22262 17.5066 1.21383 16.0829 1.19625 14.5889C1.17868 13.0949 1.15231 11.5746 1.11716 10.0278C1.082 8.4811 1.02927 6.92557 0.958968 5.36126C0.906239 3.79695 0.827144 2.26779 0.721685 0.773786H9.52753ZM5.52008 3.72664C5.39704 6.32797 5.30916 8.9293 5.25643 11.5306C5.22128 14.132 5.2037 16.5751 5.2037 18.86V20.2837H9.26388C10.8458 20.2837 12.0761 19.5631 12.955 18.1218C13.8338 16.663 14.2732 14.6153 14.2732 11.9788C14.2732 9.28962 13.8601 7.24195 13.034 5.83583C12.208 4.42971 10.9512 3.72664 9.26388 3.72664H5.52008ZM42.5431 4.96579C40.223 4.96579 38.2017 5.29096 36.4792 5.94129C34.7567 6.59162 33.4912 7.57591 32.6827 8.89415C32.5772 12.304 32.5245 15.7402 32.5245 19.2028C32.5245 20.8374 32.5333 22.3929 32.5508 23.8694C32.5684 25.3458 32.5948 26.7958 32.6299 28.2195C32.6651 29.6432 32.7178 31.0757 32.7881 32.517C32.8584 33.9407 32.9375 35.4347 33.0254 36.999H28.1479C28.2358 35.4347 28.3061 33.9407 28.3588 32.517C28.4291 31.0757 28.4819 29.6432 28.517 28.2195C28.5697 26.7958 28.6049 25.3458 28.6225 23.8694C28.6401 22.3929 28.6488 20.8374 28.6488 19.2028C28.6488 17.5682 28.6401 15.9863 28.6225 14.4571C28.6049 12.9104 28.5697 11.39 28.517 9.89601C28.4819 8.38443 28.4291 6.88163 28.3588 5.38763C28.3061 3.87604 28.2358 2.3381 28.1479 0.773786H33.0518C32.999 1.59988 32.9463 2.3381 32.8936 2.98843C32.8584 3.63876 32.8233 4.36819 32.7881 5.17671C33.3506 4.52638 34.036 3.89362 34.8446 3.27844C35.6707 2.66326 36.5319 2.12718 37.4283 1.67019C38.3247 1.19562 39.2211 0.817728 40.1175 0.536503C41.0139 0.255278 41.8225 0.114666 42.5431 0.114666V4.96579ZM70.9184 18.9128C70.9184 22.1644 70.6284 24.9767 70.0484 27.3495C69.4684 29.7048 68.6599 31.6558 67.6228 33.2025C66.6034 34.7317 65.3994 35.8653 64.0109 36.6036C62.6223 37.3418 61.1283 37.7109 59.5288 37.7109C57.9118 37.7109 56.409 37.3418 55.0205 36.6036C53.6319 35.8653 52.4191 34.7317 51.3821 33.2025C50.3627 31.6558 49.5542 29.7048 48.9566 27.3495C48.3765 24.9767 48.0865 22.1644 48.0865 18.9128C48.0865 15.6787 48.3765 12.884 48.9566 10.5288C49.5542 8.15593 50.3627 6.19615 51.3821 4.64941C52.4191 3.10268 53.6319 1.9602 55.0205 1.22199C56.409 0.483773 57.9118 0.114666 59.5288 0.114666C61.1283 0.114666 62.6223 0.483773 64.0109 1.22199C65.3994 1.9602 66.6034 3.10268 67.6228 4.64941C68.6599 6.19615 69.4684 8.15593 70.0484 10.5288C70.6284 12.884 70.9184 15.6787 70.9184 18.9128ZM66.3837 18.9128C66.3837 16.206 66.2079 13.8683 65.8564 11.8997C65.5049 9.93116 65.0215 8.31412 64.4063 7.04861C63.7912 5.76552 63.0617 4.82518 62.2181 4.22758C61.392 3.6124 60.4956 3.30481 59.5288 3.30481C58.5446 3.30481 57.6306 3.6124 56.7869 4.22758C55.9608 4.82518 55.2314 5.76552 54.5986 7.04861C53.9835 8.31412 53.5001 9.93116 53.1486 11.8997C52.797 13.8683 52.6213 16.206 52.6213 18.9128C52.6213 21.6371 52.797 23.9836 53.1486 25.9522C53.5001 27.9207 53.9835 29.5378 54.5986 30.8033C55.2314 32.0688 55.9608 33.0092 56.7869 33.6243C57.6306 34.2219 58.5446 34.5207 59.5288 34.5207C60.4956 34.5207 61.392 34.2219 62.2181 33.6243C63.0617 33.0092 63.7912 32.0688 64.4063 30.8033C65.0215 29.5378 65.5049 27.9207 65.8564 25.9522C66.2079 23.9836 66.3837 21.6371 66.3837 18.9128ZM78.5711 33.8089C78.7468 33.8616 79.0808 33.9583 79.5729 34.0989C80.0651 34.2395 80.689 34.3098 81.4448 34.3098C81.9897 34.3098 82.5082 34.2307 83.0004 34.0725C83.4925 33.9143 83.9319 33.6243 84.3186 33.2025C84.7053 32.7807 85.0392 32.2006 85.3205 31.4624C85.6017 30.7242 85.8126 29.7751 85.9532 28.615C86.0938 27.4901 86.1641 26.0137 86.1641 24.1857C86.1817 22.3578 86.1905 20.2134 86.1905 17.7527C86.1905 15.0811 86.1553 12.304 86.085 9.42144C86.0323 6.53889 85.9093 3.65634 85.7159 0.773786H90.6725C90.5846 2.21506 90.5143 3.62997 90.4616 5.01852C90.4089 6.40707 90.3561 7.73409 90.3034 8.9996C90.2682 10.2651 90.2419 11.4515 90.2243 12.5589C90.2067 13.6486 90.1979 14.6329 90.1979 15.5117C90.1979 16.496 90.1979 17.5154 90.1979 18.57C90.2155 19.6246 90.2331 20.6265 90.2507 21.5756C90.2682 22.5247 90.277 23.3772 90.277 24.133C90.2946 24.8712 90.3034 25.4249 90.3034 25.794C90.3034 27.6747 90.1188 29.3532 89.7497 30.8297C89.3806 32.3061 88.8182 33.554 88.0624 34.5735C87.3066 35.5929 86.3399 36.3663 85.1623 36.8936C84.0022 37.4209 82.6225 37.6845 81.023 37.6845C80.5133 37.6845 80.0123 37.6494 79.5202 37.579C79.0456 37.5087 78.7293 37.456 78.5711 37.4209V33.8089ZM112.879 34.6262C113.652 34.6262 114.346 34.5295 114.961 34.3362C115.594 34.1428 116.174 33.9056 116.701 33.6243C117.229 33.3255 117.712 33.0004 118.151 32.6488C118.591 32.2797 119.013 31.9282 119.417 31.5942V36.7881C118.96 36.876 118.494 36.9727 118.02 37.0781C117.563 37.1836 117.044 37.2802 116.464 37.3681C115.902 37.456 115.269 37.5351 114.566 37.6054C113.863 37.6757 113.054 37.7109 112.14 37.7109C110.295 37.7109 108.634 37.289 107.157 36.4454C105.698 35.5841 104.451 34.3538 103.414 32.7543C102.394 31.1372 101.612 29.1775 101.067 26.8749C100.522 24.5548 100.25 21.9359 100.25 19.0182C100.25 16.206 100.478 13.6398 100.935 11.3197C101.392 8.98203 102.06 6.98709 102.939 5.3349C103.835 3.6827 104.934 2.39962 106.235 1.48564C107.553 0.571656 109.073 0.114666 110.796 0.114666C112.571 0.114666 114.091 0.527715 115.357 1.35381C116.64 2.16233 117.686 3.34875 118.494 4.91306C119.32 6.4598 119.918 8.36685 120.287 10.6342C120.674 12.9016 120.867 15.4941 120.867 18.4118V19.3873H104.943C105.048 22.182 105.268 24.546 105.602 26.4795C105.953 28.4129 106.445 29.986 107.078 31.1988C107.711 32.4115 108.502 33.2904 109.451 33.8352C110.418 34.3625 111.56 34.6262 112.879 34.6262ZM116.332 16.329C116.297 15.3096 116.244 14.2726 116.174 13.218C116.104 12.1634 115.99 11.1439 115.831 10.1597C115.691 9.17537 115.489 8.2526 115.225 7.39135C114.979 6.5301 114.654 5.7831 114.249 5.15034C113.845 4.51759 113.353 4.01666 112.773 3.64755C112.193 3.27844 111.508 3.09389 110.717 3.09389C109.662 3.09389 108.783 3.48057 108.08 4.25394C107.395 5.02731 106.832 6.03796 106.393 7.28589C105.971 8.53383 105.655 9.94874 105.444 11.5306C105.233 13.1125 105.083 14.712 104.995 16.329H116.332ZM134.162 18.9128C134.162 21.4438 134.364 23.6848 134.768 25.6358C135.172 27.5692 135.744 29.195 136.482 30.5133C137.238 31.8315 138.134 32.8334 139.171 33.5189C140.226 34.1868 141.394 34.5207 142.678 34.5207C143.451 34.5207 144.136 34.4241 144.734 34.2307C145.332 34.0374 145.868 33.8001 146.342 33.5189C146.834 33.2201 147.291 32.8949 147.713 32.5434C148.135 32.1743 148.548 31.8227 148.952 31.4888V36.7881C147.968 37.0342 146.975 37.2275 145.973 37.3681C144.989 37.5263 143.89 37.6054 142.678 37.6054C140.797 37.6054 139.057 37.2275 137.457 36.4717C135.858 35.7159 134.469 34.5735 133.292 33.0443C132.132 31.4976 131.218 29.5554 130.55 27.2177C129.899 24.8624 129.574 22.0941 129.574 18.9128C129.574 15.7314 129.917 12.9719 130.602 10.6342C131.306 8.27897 132.246 6.33676 133.424 4.8076C134.619 3.26087 136.007 2.1096 137.589 1.35381C139.189 0.598021 140.885 0.220125 142.678 0.220125C143.89 0.220125 144.989 0.29922 145.973 0.457409C146.975 0.598021 147.968 0.791363 148.952 1.03743V6.33676C148.548 6.00281 148.135 5.66006 147.713 5.30853C147.291 4.93942 146.834 4.61426 146.342 4.33303C145.868 4.03423 145.332 3.78816 144.734 3.59482C144.136 3.40148 143.451 3.30481 142.678 3.30481C141.394 3.30481 140.226 3.64755 139.171 4.33303C138.134 5.00094 137.238 5.99402 136.482 7.31226C135.744 8.6305 135.172 10.2651 134.768 12.2161C134.364 14.1495 134.162 16.3817 134.162 18.9128ZM155.972 0.773786H174.032V3.85847H167.309C167.168 6.44222 167.081 9.02597 167.045 11.6097C167.01 14.1935 166.993 16.6102 166.993 18.86C166.993 20.2134 167.002 21.6371 167.019 23.1311C167.037 24.6251 167.063 26.1543 167.098 27.7186C167.133 29.2653 167.177 30.8297 167.23 32.4115C167.283 33.9759 167.353 35.505 167.441 36.999H162.511C162.616 35.505 162.695 33.9759 162.748 32.4115C162.818 30.8297 162.871 29.2653 162.906 27.7186C162.941 26.1543 162.968 24.6251 162.985 23.1311C163.003 21.6371 163.012 20.2134 163.012 18.86C163.012 16.6102 162.985 14.1935 162.933 11.6097C162.897 9.02597 162.818 6.44222 162.695 3.85847H155.972V0.773786Z" fill="#FFBE98"/>
</svg>
