<svg width="44" height="44" viewBox="0 0 44 44" fill="none" xmlns="http://www.w3.org/2000/svg">
<g opacity="0.6" clip-path="url(#clip0_0_146)">
<g clip-path="url(#clip1_0_146)">
<path d="M16.9961 13.0799C16.9466 12.4002 17.0378 11.7176 17.2639 11.0747C17.4901 10.4318 17.8463 9.84244 18.3103 9.34336C18.7744 8.84427 19.3363 8.4462 19.9611 8.17399C20.5859 7.90177 21.2601 7.76127 21.9416 7.76123C22.6243 7.76113 23.2996 7.902 23.9254 8.17503C24.5511 8.44805 25.1137 8.84734 25.578 9.34789C26.0423 9.84845 26.3982 10.4395 26.6234 11.0839C26.8487 11.7284 26.9384 12.4125 26.887 13.0932L26.7004 15.7726C26.616 16.9773 26.0781 18.1053 25.195 18.929C24.3118 19.7528 23.1492 20.2111 21.9416 20.2115C20.7339 20.2111 19.5713 19.7528 18.6882 18.929C17.805 18.1053 17.2671 16.9773 17.1827 15.7726L16.9961 13.0799ZM32.339 35.2078C30.5261 35.6877 27.3002 36.2209 21.9416 36.2209C16.5829 36.2209 13.357 35.6877 11.5441 35.2078C10.921 35.0437 10.3827 34.6505 10.0368 34.1069C9.69085 33.5633 9.56269 32.9092 9.67792 32.2752C10.3844 27.6097 13.4503 25.2902 21.9416 25.2902C30.4328 25.2902 33.4987 27.623 34.2052 32.2618C34.3204 32.8958 34.1923 33.5499 33.8463 34.0936C33.5004 34.6372 32.9621 35.0303 32.339 35.1945V35.2078Z" stroke="#F2F2F2" stroke-width="2.66601" stroke-linecap="round" stroke-linejoin="round"/>
</g>
</g>
<defs>
<clipPath id="clip0_0_146">
<rect width="42.6561" height="42.6561" fill="white" transform="translate(0.613647 0.65625)"/>
</clipPath>
<clipPath id="clip1_0_146">
<rect width="42.6561" height="42.6561" fill="white" transform="translate(0.613647 0.65625)"/>
</clipPath>
</defs>
</svg>
