<svg width="43" height="44" viewBox="0 0 43 44" fill="none" xmlns="http://www.w3.org/2000/svg">
<g opacity="0.6" clip-path="url(#clip0_0_151)">
<g clip-path="url(#clip1_0_151)">
<path d="M34.0749 34.4212L26.0769 26.4232M28.7429 19.3183C28.7429 21.9097 27.7135 24.395 25.8811 26.2274C24.0487 28.0598 21.5634 29.0892 18.972 29.0892C16.3806 29.0892 13.8953 28.0598 12.0629 26.2274C10.2305 24.395 9.20105 21.9097 9.20105 19.3183C9.20105 16.7269 10.2305 14.2416 12.0629 12.4092C13.8953 10.5768 16.3806 9.54736 18.972 9.54736C21.5634 9.54736 24.0487 10.5768 25.8811 12.4092C27.7135 14.2416 28.7429 16.7269 28.7429 19.3183Z" stroke="#F2F2F2" stroke-width="2.66601" stroke-linecap="round" stroke-linejoin="round"/>
</g>
</g>
<defs>
<clipPath id="clip0_0_151">
<rect width="42.6561" height="42.6561" fill="white" transform="translate(0.309937 0.65625)"/>
</clipPath>
<clipPath id="clip1_0_151">
<rect width="42.6561" height="42.6561" fill="white" transform="translate(0.309937 0.65625)"/>
</clipPath>
</defs>
</svg>
