<svg width="64" height="60" viewBox="0 0 64 60" fill="none" xmlns="http://www.w3.org/2000/svg">
<g filter="url(#filter0_d_0_261)">
<path d="M7.8231 8.00003H22.3671C22.5644 8.00003 22.7464 8.10617 22.8449 8.27863L29.9575 20.7214H44.1765C44.3735 20.7214 44.5558 20.8275 44.6543 21L51.926 33.7213C52.0245 33.8937 52.0245 34.106 51.926 34.2785L44.6543 46.9998C44.5558 47.1723 44.3735 47.2784 44.1765 47.2784H29.9575L22.8449 59.7212C22.7464 59.8936 22.5641 59.9998 22.3671 59.9998H7.8231C7.62589 59.9998 7.44384 59.8936 7.34536 59.7212L0.0736313 46.9998C-0.0245628 46.8274 -0.0245628 46.6151 0.0736313 46.4426L7.18621 33.9999L0.0736313 21.5571C-0.0245628 21.3847 -0.0245628 21.1724 0.0736313 21L7.34536 8.27863C7.44384 8.10645 7.62589 8.00003 7.8231 8.00003ZM22.0488 9.1144H8.14169L1.18854 21.2786L8.14169 33.4427H22.0425L28.9987 21.273L22.0488 9.1144ZM43.858 21.8357H29.9575L23.0043 33.9999L29.9575 46.1641H43.858L50.8111 33.9999L43.858 21.8357ZM22.0425 34.5571H8.14169L1.18854 46.7212L8.14169 58.8854H22.0488L28.9987 46.7268L22.0425 34.5571ZM20.59 11.2175C20.7806 11.2175 20.9659 11.3175 21.0682 11.4961L26.5636 21.1097C26.6621 21.2822 26.6621 21.4945 26.5636 21.6669L21.0682 31.2808C20.9157 31.5472 20.5795 31.6391 20.3147 31.4848C20.0507 31.331 19.9605 30.9903 20.1128 30.7237L25.4493 21.3883L20.1128 12.0533C19.9605 11.7867 20.0507 11.4459 20.3147 11.2921C20.4016 11.2414 20.4967 11.2175 20.59 11.2175ZM42.486 23.6775C42.6766 23.6775 42.8619 23.7775 42.9643 23.9561L48.5465 33.7213C48.645 33.8937 48.645 34.106 48.5465 34.2785L42.9643 44.0437C42.8658 44.2161 42.6835 44.3223 42.4865 44.3223H31.3223C31.0177 44.3223 30.7706 44.0727 30.7706 43.7651C30.7706 43.4575 31.0177 43.2079 31.3223 43.2079H42.1679L47.4316 33.9999L42.0088 24.5133C41.8565 24.2467 41.9467 23.906 42.2107 23.7522C42.2976 23.7015 42.3925 23.6775 42.486 23.6775ZM26.0867 46.1638C26.1802 46.1638 26.2751 46.1877 26.362 46.2387C26.626 46.3925 26.7162 46.7332 26.5639 46.9998L21.0685 56.6138C20.97 56.7862 20.7877 56.8923 20.5908 56.8923H9.59973C9.29522 56.8923 9.04807 56.6427 9.04807 56.3352C9.04807 56.0276 9.29522 55.778 9.59973 55.778H20.2722L25.6084 46.4426C25.7105 46.2638 25.8961 46.1638 26.0867 46.1638Z" fill="#FFBE98"/>
</g>
<defs>
<filter id="filter0_d_0_261" x="0" y="0.373373" width="63.0932" height="59.6264" filterUnits="userSpaceOnUse" color-interpolation-filters="sRGB">
<feFlood flood-opacity="0" result="BackgroundImageFix"/>
<feColorMatrix in="SourceAlpha" type="matrix" values="0 0 0 0 0 0 0 0 0 0 0 0 0 0 0 0 0 0 127 0" result="hardAlpha"/>
<feOffset dx="11.0933" dy="-7.62663"/>
<feComposite in2="hardAlpha" operator="out"/>
<feColorMatrix type="matrix" values="0 0 0 0 0.721569 0 0 0 0 0.588235 0 0 0 0 0.752941 0 0 0 0.25 0"/>
<feBlend mode="normal" in2="BackgroundImageFix" result="effect1_dropShadow_0_261"/>
<feBlend mode="normal" in="SourceGraphic" in2="effect1_dropShadow_0_261" result="shape"/>
</filter>
</defs>
</svg>
